{
    "asset" : {
        "generator" : "Khronos glTF Blender I/O v1.2.75",
        "version" : "2.0"
    },
    "scene" : 0,
    "scenes" : [
        {
            "name" : "Scene",
            "nodes" : [
                0,
                1,
                2,
                3,
                4
            ]
        }
    ],
    "nodes" : [
        {
            "name" : "Light",
            "rotation" : [
                0.16907575726509094,
                0.7558803558349609,
                -0.27217137813568115,
                0.570947527885437
            ],
            "translation" : [
                4.076245307922363,
                5.903861999511719,
                -1.0054539442062378
            ]
        },
        {
            "name" : "Camera",
            "rotation" : [
                0.483536034822464,
                0.33687159419059753,
                -0.20870360732078552,
                0.7804827094078064
            ],
            "translation" : [
                7.358891487121582,
                4.958309173583984,
                6.925790786743164
            ]
        },
        {
            "mesh" : 0,
            "name" : "Cube",
            "scale" : [
                12,
                10,
                10
            ],
            "translation" : [
                0,
                -5,
                0
            ]
        },
        {
            "mesh" : 1,
            "name" : "Cube.001",
            "scale" : [
                12,
                10,
                10
            ],
            "translation" : [
                0,
                -5,
                -10
            ]
        },
        {
            "mesh" : 2,
            "name" : "Cube.002",
            "scale" : [
                12,
                10,
                10
            ],
            "translation" : [
                0,
                -5,
                -20
            ]
        }
    ],
    "materials" : [
        {
            "doubleSided" : true,
            "emissiveFactor" : [
                0,
                0,
                0
            ],
            "name" : "Material",
            "pbrMetallicRoughness" : {
                "baseColorTexture" : {
                    "index" : 0,
                    "texCoord" : 0
                },
                "metallicFactor" : 0,
                "roughnessFactor" : 0.4000000059604645
            }
        },
        {
            "doubleSided" : true,
            "emissiveFactor" : [
                0,
                0,
                0
            ],
            "name" : "Material.001",
            "pbrMetallicRoughness" : {
                "baseColorTexture" : {
                    "index" : 1,
                    "texCoord" : 0
                },
                "metallicFactor" : 0,
                "roughnessFactor" : 0.5
            }
        }
    ],
    "meshes" : [
        {
            "name" : "Cube.001",
            "primitives" : [
                {
                    "attributes" : {
                        "POSITION" : 0,
                        "NORMAL" : 1,
                        "TEXCOORD_0" : 2
                    },
                    "indices" : 3,
                    "material" : 0
                },
                {
                    "attributes" : {
                        "POSITION" : 4,
                        "NORMAL" : 5,
                        "TEXCOORD_0" : 6
                    },
                    "indices" : 7,
                    "material" : 1
                }
            ]
        },
        {
            "name" : "Cube.002",
            "primitives" : [
                {
                    "attributes" : {
                        "POSITION" : 8,
                        "NORMAL" : 9,
                        "TEXCOORD_0" : 10
                    },
                    "indices" : 11,
                    "material" : 0
                },
                {
                    "attributes" : {
                        "POSITION" : 12,
                        "NORMAL" : 13,
                        "TEXCOORD_0" : 14
                    },
                    "indices" : 15,
                    "material" : 1
                }
            ]
        },
        {
            "name" : "Cube.003",
            "primitives" : [
                {
                    "attributes" : {
                        "POSITION" : 16,
                        "NORMAL" : 17,
                        "TEXCOORD_0" : 18
                    },
                    "indices" : 19,
                    "material" : 0
                },
                {
                    "attributes" : {
                        "POSITION" : 20,
                        "NORMAL" : 21,
                        "TEXCOORD_0" : 22
                    },
                    "indices" : 23,
                    "material" : 1
                }
            ]
        }
    ],
    "textures" : [
        {
            "source" : 0
        },
        {
            "source" : 1
        }
    ],
    "images" : [
        {
            "mimeType" : "image/png",
            "name" : "earth",
            "uri" : "earth.png"
        },
        {
            "mimeType" : "image/png",
            "name" : "green",
            "uri" : "green.png"
        }
    ],
    "accessors" : [
        {
            "bufferView" : 0,
            "componentType" : 5126,
            "count" : 1340,
            "max" : [
                0.5,
                0.44999998807907104,
                0.5
            ],
            "min" : [
                -0.5,
                -0.5,
                -0.5
            ],
            "type" : "VEC3"
        },
        {
            "bufferView" : 1,
            "componentType" : 5126,
            "count" : 1340,
            "type" : "VEC3"
        },
        {
            "bufferView" : 2,
            "componentType" : 5126,
            "count" : 1340,
            "type" : "VEC2"
        },
        {
            "bufferView" : 3,
            "componentType" : 5123,
            "count" : 2640,
            "type" : "SCALAR"
        },
        {
            "bufferView" : 4,
            "componentType" : 5126,
            "count" : 576,
            "max" : [
                0.5,
                0.5,
                0.5
            ],
            "min" : [
                -0.5,
                0.44999998807907104,
                -0.5
            ],
            "type" : "VEC3"
        },
        {
            "bufferView" : 5,
            "componentType" : 5126,
            "count" : 576,
            "type" : "VEC3"
        },
        {
            "bufferView" : 6,
            "componentType" : 5126,
            "count" : 576,
            "type" : "VEC2"
        },
        {
            "bufferView" : 7,
            "componentType" : 5123,
            "count" : 912,
            "type" : "SCALAR"
        },
        {
            "bufferView" : 8,
            "componentType" : 5126,
            "count" : 937,
            "max" : [
                0.5,
                0.44999998807907104,
                0.5
            ],
            "min" : [
                -0.5,
                -0.5,
                -0.5
            ],
            "type" : "VEC3"
        },
        {
            "bufferView" : 9,
            "componentType" : 5126,
            "count" : 937,
            "type" : "VEC3"
        },
        {
            "bufferView" : 10,
            "componentType" : 5126,
            "count" : 937,
            "type" : "VEC2"
        },
        {
            "bufferView" : 11,
            "componentType" : 5123,
            "count" : 1920,
            "type" : "SCALAR"
        },
        {
            "bufferView" : 12,
            "componentType" : 5126,
            "count" : 550,
            "max" : [
                0.5,
                0.5,
                0.5
            ],
            "min" : [
                -0.5,
                0.44999998807907104,
                -0.5
            ],
            "type" : "VEC3"
        },
        {
            "bufferView" : 13,
            "componentType" : 5126,
            "count" : 550,
            "type" : "VEC3"
        },
        {
            "bufferView" : 14,
            "componentType" : 5126,
            "count" : 550,
            "type" : "VEC2"
        },
        {
            "bufferView" : 15,
            "componentType" : 5123,
            "count" : 840,
            "type" : "SCALAR"
        },
        {
            "bufferView" : 16,
            "componentType" : 5126,
            "count" : 1327,
            "max" : [
                0.5,
                0.44999998807907104,
                0.5
            ],
            "min" : [
                -0.5,
                -0.5,
                -0.5
            ],
            "type" : "VEC3"
        },
        {
            "bufferView" : 17,
            "componentType" : 5126,
            "count" : 1327,
            "type" : "VEC3"
        },
        {
            "bufferView" : 18,
            "componentType" : 5126,
            "count" : 1327,
            "type" : "VEC2"
        },
        {
            "bufferView" : 19,
            "componentType" : 5123,
            "count" : 2640,
            "type" : "SCALAR"
        },
        {
            "bufferView" : 20,
            "componentType" : 5126,
            "count" : 576,
            "max" : [
                0.5,
                0.5,
                0.5
            ],
            "min" : [
                -0.5,
                0.44999998807907104,
                -0.5
            ],
            "type" : "VEC3"
        },
        {
            "bufferView" : 21,
            "componentType" : 5126,
            "count" : 576,
            "type" : "VEC3"
        },
        {
            "bufferView" : 22,
            "componentType" : 5126,
            "count" : 576,
            "type" : "VEC2"
        },
        {
            "bufferView" : 23,
            "componentType" : 5123,
            "count" : 912,
            "type" : "SCALAR"
        }
    ],
    "bufferViews" : [
        {
            "buffer" : 0,
            "byteLength" : 16080,
            "byteOffset" : 0
        },
        {
            "buffer" : 0,
            "byteLength" : 16080,
            "byteOffset" : 16080
        },
        {
            "buffer" : 0,
            "byteLength" : 10720,
            "byteOffset" : 32160
        },
        {
            "buffer" : 0,
            "byteLength" : 5280,
            "byteOffset" : 42880
        },
        {
            "buffer" : 0,
            "byteLength" : 6912,
            "byteOffset" : 48160
        },
        {
            "buffer" : 0,
            "byteLength" : 6912,
            "byteOffset" : 55072
        },
        {
            "buffer" : 0,
            "byteLength" : 4608,
            "byteOffset" : 61984
        },
        {
            "buffer" : 0,
            "byteLength" : 1824,
            "byteOffset" : 66592
        },
        {
            "buffer" : 0,
            "byteLength" : 11244,
            "byteOffset" : 68416
        },
        {
            "buffer" : 0,
            "byteLength" : 11244,
            "byteOffset" : 79660
        },
        {
            "buffer" : 0,
            "byteLength" : 7496,
            "byteOffset" : 90904
        },
        {
            "buffer" : 0,
            "byteLength" : 3840,
            "byteOffset" : 98400
        },
        {
            "buffer" : 0,
            "byteLength" : 6600,
            "byteOffset" : 102240
        },
        {
            "buffer" : 0,
            "byteLength" : 6600,
            "byteOffset" : 108840
        },
        {
            "buffer" : 0,
            "byteLength" : 4400,
            "byteOffset" : 115440
        },
        {
            "buffer" : 0,
            "byteLength" : 1680,
            "byteOffset" : 119840
        },
        {
            "buffer" : 0,
            "byteLength" : 15924,
            "byteOffset" : 121520
        },
        {
            "buffer" : 0,
            "byteLength" : 15924,
            "byteOffset" : 137444
        },
        {
            "buffer" : 0,
            "byteLength" : 10616,
            "byteOffset" : 153368
        },
        {
            "buffer" : 0,
            "byteLength" : 5280,
            "byteOffset" : 163984
        },
        {
            "buffer" : 0,
            "byteLength" : 6912,
            "byteOffset" : 169264
        },
        {
            "buffer" : 0,
            "byteLength" : 6912,
            "byteOffset" : 176176
        },
        {
            "buffer" : 0,
            "byteLength" : 4608,
            "byteOffset" : 183088
        },
        {
            "buffer" : 0,
            "byteLength" : 1824,
            "byteOffset" : 187696
        }
    ],
    "buffers" : [
        {
            "byteLength" : 189520,
            "uri" : "StageMap1.bin"
        }
    ]
}
